<svg xmlns="http://www.w3.org/2000/svg" version="1.1" xmlns:xlink="http://www.w3.org/1999/xlink" xmlns:svgjs="http://svgjs.dev/svgjs" width="1500" height="1500" viewBox="0 0 1500 1500"><rect width="1500" height="1500" fill="#4b91f1"></rect><g transform="matrix(0.6666666666666666,0,0,0.6666666666666666,250,250)"><svg viewBox="0 0 280 280" data-background-color="#4b91f1" preserveAspectRatio="xMidYMid meet" height="1500" width="1500" xmlns="http://www.w3.org/2000/svg" xmlns:xlink="http://www.w3.org/1999/xlink"><g id="tight-bounds" transform="matrix(1,0,0,1,0,0)"><svg viewBox="0 0 280 280" height="280" width="280"><g><svg viewBox="0 0 280 280" height="280" width="280"><g><svg viewBox="0 0 280 280" height="280" width="280"><g id="textblocktransform"><svg viewBox="0 0 280 280" height="280" width="280" id="textblock"><g><svg viewBox="0 0 280 280" height="280" width="280"><g transform="matrix(1,0,0,1,79.66022133874795,74.00336708925556)"><svg viewBox="0 0 120.67955732250411 131.99326582148888" height="131.99326582148888" width="120.67955732250411"><g id="icon-0"><svg xmlns="http://www.w3.org/2000/svg" data-name="Layer 1" viewBox="4 2.5 16 17.5" x="0" y="0" height="131.99326582148888" width="120.67955732250411" class="icon-jxe-0" data-fill-palette-color="accent" id="jxe-0"><path d="M19.2 7.4L13.2 2.9A2 2 0 0 0 10.8 2.9L4.8 7.4A2 2 0 0 0 4 9V18A2 2 0 0 0 6 20H18A2 2 0 0 0 20 18V9A2 2 0 0 0 19.2 7.4M11.5 14H8V10H11.5ZM8 19V15H11.5V19ZM12.5 19V15H16V19ZM19 18A1 1 0 0 1 18 19H17V15A1 1 0 0 0 16 14H12.5V10A1 1 0 0 0 11.5 9H8A1 1 0 0 0 7 10V19H6A1 1 0 0 1 5 18V9A1 1 0 0 1 5.4 8.2L11.4 3.7A1 1 0 0 1 12.6 3.7L18.6 8.2A1 1 0 0 1 19 9Z" fill="#ffffff" data-fill-palette-color="accent"></path></svg></g></svg></g><g id="text-0"><path d="M34.308 101.616l-2.291 5.284-28.718-3.783 2.557-5.895 19.585 3.465 0.099-0.228-15.734-12.344 2.193-5.055 19.814 3.086 0.103-0.237-15.975-11.938 2.569-5.923 22.373 18.411-2.284 5.265-18.805-2.388-0.087 0.2z" fill="#ffffff" data-fill-palette-color="primary"></path><path d="M57.187 64.23v0c-1.447 1.588-3.013 2.66-4.695 3.217-1.688 0.552-3.409 0.594-5.163 0.126-1.754-0.468-3.447-1.446-5.078-2.934v0c-1.583-1.443-2.695-3.018-3.338-4.725-0.637-1.703-0.782-3.419-0.435-5.148 0.343-1.724 1.202-3.341 2.578-4.851v0c1.242-1.362 2.655-2.331 4.238-2.906 1.588-0.571 3.256-0.653 5.002-0.246 1.756 0.407 3.508 1.408 5.258 3.003v0l1.161 1.059-9.596 10.526c1.211 1.024 2.438 1.518 3.681 1.485 1.238-0.029 2.324-0.556 3.257-1.58v0c0.648-0.711 1.052-1.459 1.213-2.246 0.161-0.787 0.053-1.554-0.325-2.301v0l3.87-3.714c1.139 1.595 1.588 3.391 1.348 5.388-0.246 1.992-1.238 3.942-2.976 5.847zM44.5 58.923v0l5.83-6.395c-1.065-0.791-2.123-1.186-3.173-1.184-1.046 0.006-2.003 0.485-2.87 1.436v0c-0.871 0.956-1.265 1.983-1.181 3.082 0.084 1.099 0.549 2.12 1.394 3.061z" fill="#ffffff" data-fill-palette-color="primary"></path><path d="M57.077 26.501l4.727-3.359 16.132 22.703-4.727 3.359z" fill="#ffffff" data-fill-palette-color="primary"></path><path d="M77.962 14.075l5.228-2.51 12.053 25.108-5.228 2.509z" fill="#ffffff" data-fill-palette-color="primary"></path><path d="M137.849 28.597v0c-2.478 0.104-4.718-0.367-6.719-1.411-2.001-1.038-3.61-2.597-4.826-4.676-1.215-2.08-1.886-4.627-2.012-7.641v0c-0.127-3.041 0.334-5.649 1.384-7.824 1.044-2.174 2.523-3.862 4.438-5.064 1.914-1.208 4.093-1.864 6.538-1.966v0c2.153-0.09 4.108 0.229 5.864 0.959 1.756 0.723 3.215 1.813 4.378 3.271 1.156 1.465 1.905 3.262 2.247 5.391v0l-5.943 0.249c-0.289-1.521-0.992-2.7-2.11-3.535-1.123-0.829-2.486-1.21-4.089-1.143v0c-2.14 0.09-3.833 0.954-5.079 2.592-1.239 1.645-1.797 3.918-1.675 6.82v0c0.124 2.962 0.874 5.187 2.251 6.676 1.383 1.488 3.131 2.188 5.244 2.1v0c1.557-0.065 2.862-0.531 3.914-1.399 1.059-0.867 1.693-2.049 1.903-3.544v0l5.943-0.249c-0.14 1.718-0.683 3.35-1.627 4.897-0.937 1.552-2.247 2.832-3.931 3.838-1.683 1.006-3.714 1.559-6.093 1.659z" fill="#ffffff" data-fill-palette-color="primary"></path><path d="M170.659 32.546v0c-2.033-0.534-3.682-1.434-4.947-2.699-1.259-1.263-2.084-2.78-2.476-4.549-0.39-1.776-0.313-3.699 0.231-5.77v0c0.548-2.084 1.428-3.804 2.642-5.158 1.215-1.361 2.681-2.281 4.398-2.762 1.724-0.479 3.602-0.452 5.635 0.082v0c2.052 0.54 3.708 1.441 4.966 2.705 1.259 1.263 2.082 2.786 2.471 4.568 0.39 1.776 0.311 3.706-0.237 5.79v0c-0.545 2.071-1.423 3.784-2.636 5.138-1.211 1.348-2.676 2.262-4.393 2.743-1.717 0.481-3.602 0.452-5.654-0.088zM169.172 20.986v0c-0.464 1.764-0.49 3.31-0.077 4.639 0.41 1.335 1.321 2.188 2.731 2.559v0c1.398 0.368 2.604 0.071 3.618-0.89 1.012-0.954 1.75-2.313 2.213-4.077v0c0.462-1.757 0.486-3.297 0.073-4.619-0.415-1.316-1.322-2.158-2.72-2.526v0c-1.411-0.371-2.621-0.086-3.629 0.856-1.01 0.948-1.746 2.301-2.209 4.058z" fill="#ffffff" data-fill-palette-color="primary"></path><path d="M197.936 43.333l-5.039-2.789 7.999-14.456-2.567-1.421 2.119-3.829 2.567 1.42 0.732-1.322c1.092-1.973 2.48-3.133 4.166-3.482 1.683-0.357 3.38-0.062 5.092 0.885v0c0.783 0.433 1.465 0.894 2.044 1.381 0.579 0.487 0.999 0.859 1.258 1.117v0l-3.005 3.294c-0.165-0.167-0.375-0.356-0.631-0.566-0.246-0.212-0.529-0.406-0.848-0.583v0c-0.743-0.411-1.358-0.524-1.847-0.339-0.491 0.175-0.908 0.574-1.252 1.194v0l-0.67 1.21 3.647 2.018-2.119 3.829-3.647-2.018z" fill="#ffffff" data-fill-palette-color="primary"></path><path d="M216.977 57.212l-4.364-3.758 10.782-12.519-2.224-1.915 2.856-3.316 2.224 1.915 0.986-1.146c1.471-1.708 3.068-2.561 4.789-2.557 1.72-0.006 3.322 0.629 4.804 1.906v0c0.678 0.584 1.251 1.174 1.719 1.769 0.468 0.595 0.802 1.045 1.003 1.35v0l-3.613 2.611c-0.128-0.197-0.295-0.425-0.503-0.682-0.198-0.258-0.435-0.506-0.711-0.744v0c-0.643-0.554-1.223-0.79-1.739-0.71-0.517 0.071-1.006 0.376-1.469 0.914v0l-0.902 1.047 3.158 2.72-2.857 3.316-3.158-2.719z" fill="#ffffff" data-fill-palette-color="primary"></path><path d="M233.522 76.801v0c-1.265-1.736-2.002-3.485-2.21-5.245-0.202-1.764 0.102-3.458 0.912-5.082 0.81-1.624 2.108-3.086 3.893-4.387v0c1.731-1.261 3.497-2.035 5.298-2.322 1.796-0.283 3.506-0.081 5.131 0.606 1.621 0.682 3.032 1.848 4.235 3.499v0c1.086 1.49 1.751 3.068 1.998 4.734 0.241 1.671-0.013 3.32-0.763 4.95-0.751 1.638-2.083 3.154-3.997 4.548v0l-1.27 0.926-8.388-11.512c-1.246 0.982-1.977 2.084-2.192 3.308-0.22 1.219 0.078 2.388 0.894 3.508v0c0.566 0.777 1.219 1.323 1.957 1.638 0.738 0.315 1.512 0.363 2.32 0.144v0l2.862 4.536c-1.791 0.796-3.64 0.876-5.548 0.239-1.902-0.64-3.613-2.003-5.132-4.088zM241.265 65.437v0l5.096 6.994c0.988-0.884 1.587-1.842 1.797-2.872 0.204-1.026-0.073-2.06-0.831-3.099v0c-0.761-1.045-1.689-1.637-2.783-1.776-1.094-0.139-2.187 0.112-3.279 0.753z" fill="#ffffff" data-fill-palette-color="primary"></path><path d="M247.663 104.07v0c-0.757-2.011-1-3.892-0.732-5.644 0.275-1.754 1.02-3.306 2.234-4.656 1.214-1.349 2.854-2.413 4.921-3.191v0c2.005-0.754 3.913-1.03 5.725-0.826 1.806 0.206 3.401 0.857 4.784 1.952 1.38 1.089 2.43 2.589 3.149 4.501v0c0.649 1.725 0.87 3.424 0.664 5.096-0.213 1.674-0.898 3.197-2.055 4.567-1.16 1.379-2.848 2.485-5.064 3.319v0l-1.471 0.553-5.016-13.331c-1.462 0.614-2.461 1.482-2.995 2.604-0.537 1.116-0.561 2.322-0.073 3.62v0c0.339 0.9 0.822 1.6 1.45 2.101 0.628 0.501 1.36 0.753 2.197 0.756v0l1.55 5.135c-1.938 0.29-3.742-0.126-5.411-1.248-1.663-1.124-2.949-2.894-3.857-5.308zM258.155 95.18v0l3.047 8.1c1.188-0.589 2.021-1.352 2.497-2.289 0.47-0.935 0.479-2.004 0.026-3.209v0c-0.455-1.21-1.192-2.028-2.209-2.453-1.017-0.425-2.138-0.475-3.361-0.149z" fill="#ffffff" data-fill-palette-color="primary"></path><path d="M15.084 194.049l-2.438-5.512 23.3-19.42 2.724 6.158-16.575 12.617 0.101 0.228 20.679-3.339 2.333 5.276-16.448 13.051 0.113 0.255 20.532-3.818 2.732 6.177-30.052 4.156-2.43-5.495 15.197-12.78-0.096-0.218z" fill="#ffffff" data-fill-palette-color="primary"></path><path d="M41.821 238.312v0c-1.532-1.646-2.516-3.37-2.953-5.173-0.433-1.808-0.328-3.608 0.313-5.401 0.641-1.793 1.807-3.475 3.496-5.048v0c1.646-1.532 3.383-2.555 5.213-3.071 1.834-0.521 3.639-0.529 5.413-0.024 1.774 0.505 3.391 1.541 4.85 3.108v0c1.315 1.413 2.202 2.969 2.662 4.671 0.464 1.706 0.406 3.454-0.174 5.244-0.576 1.795-1.771 3.538-3.587 5.227v0l-1.201 1.118-10.159-10.914c-1.173 1.173-1.797 2.411-1.871 3.712-0.075 1.302 0.38 2.482 1.365 3.54v0c0.687 0.738 1.434 1.224 2.242 1.46 0.808 0.235 1.621 0.19 2.44-0.138v0l3.539 4.343c-1.764 1.053-3.676 1.37-5.735 0.948-2.063-0.426-4.014-1.627-5.853-3.602zM48.452 225.537v0l6.174 6.633c0.915-1.051 1.416-2.124 1.501-3.219 0.086-1.095-0.329-2.135-1.246-3.12v0c-0.926-0.995-1.966-1.495-3.12-1.499-1.154-0.004-2.257 0.398-3.309 1.205z" fill="#ffffff" data-fill-palette-color="primary"></path><path d="M78.393 231.445l4.974 3.475-16.701 23.908-4.975-3.474z" fill="#ffffff" data-fill-palette-color="primary"></path><path d="M93.712 240.472l5.48 2.606-12.525 26.337-5.48-2.605z" fill="#ffffff" data-fill-palette-color="primary"></path><path d="M136.765 279.982v0c-2.59-0.114-4.883-0.802-6.879-2.064-1.996-1.262-3.534-3.032-4.616-5.31-1.081-2.284-1.553-5.003-1.415-8.156v0c0.139-3.18 0.854-5.86 2.145-8.041 1.29-2.174 2.988-3.802 5.093-4.884 2.105-1.083 4.433-1.568 6.983-1.456v0c2.259 0.099 4.271 0.605 6.037 1.519 1.772 0.914 3.196 2.185 4.273 3.812 1.077 1.627 1.699 3.566 1.866 5.816v0l-6.221-0.272c-0.168-1.614-0.799-2.906-1.891-3.877-1.093-0.964-2.481-1.483-4.163-1.556v0c-2.239-0.098-4.081 0.654-5.525 2.256-1.444 1.596-2.233 3.915-2.366 6.956v0c-0.136 3.1 0.45 5.489 1.757 7.166 1.307 1.677 3.067 2.564 5.279 2.661v0c1.63 0.071 3.033-0.298 4.211-1.11 1.177-0.805 1.945-1.979 2.305-3.523v0l6.22 0.273c-0.304 1.779-1.013 3.434-2.129 4.964-1.123 1.531-2.606 2.747-4.451 3.648-1.851 0.895-4.022 1.287-6.513 1.178z" fill="#ffffff" data-fill-palette-color="primary"></path><path d="M176.336 275.406v0c-2.136 0.561-4.103 0.591-5.9 0.089-1.799-0.508-3.334-1.469-4.604-2.885-1.27-1.415-2.189-3.206-2.758-5.374v0c-0.574-2.187-0.656-4.209-0.246-6.065 0.409-1.863 1.272-3.457 2.59-4.783 1.318-1.326 3.044-2.27 5.181-2.831v0c2.142-0.563 4.113-0.59 5.912-0.082 1.799 0.508 3.335 1.472 4.606 2.894 1.27 1.415 2.192 3.216 2.766 5.403v0c0.569 2.168 0.649 4.18 0.238 6.036-0.411 1.856-1.275 3.447-2.593 4.774-1.319 1.32-3.05 2.261-5.192 2.824zM169.028 265.631v0c0.483 1.841 1.255 3.263 2.314 4.268 1.065 1.002 2.336 1.31 3.811 0.922v0c1.462-0.384 2.408-1.273 2.837-2.668 0.429-1.395 0.402-3.013-0.082-4.853v0c-0.483-1.841-1.253-3.257-2.308-4.248-1.056-0.991-2.315-1.295-3.777-0.911v0c-1.475 0.387-2.432 1.273-2.871 2.656-0.432 1.382-0.407 2.993 0.076 4.834z" fill="#ffffff" data-fill-palette-color="primary"></path><path d="M208.276 261.879l-5.277 2.914-8.364-15.153-2.691 1.486-2.211-4.006 2.691-1.485-0.765-1.385c-1.144-2.073-1.405-3.951-0.782-5.636 0.629-1.688 1.84-3.027 3.634-4.017v0c0.824-0.455 1.613-0.803 2.366-1.044 0.753-0.241 1.313-0.407 1.681-0.496v0l1.256 4.499c-0.241 0.057-0.526 0.139-0.854 0.244-0.328 0.105-0.658 0.249-0.988 0.432v0c-0.778 0.429-1.224 0.911-1.339 1.443-0.115 0.533 0.007 1.125 0.366 1.775v0l0.702 1.272 3.823-2.111 2.211 4.006-3.823 2.11z" fill="#ffffff" data-fill-palette-color="primary"></path><path d="M230.644 245.738l-4.581 3.917-11.246-13.156-2.337 1.997-2.973-3.478 2.336-1.997-1.027-1.202c-1.538-1.799-2.172-3.587-1.902-5.362 0.276-1.78 1.192-3.335 2.75-4.667v0c0.716-0.612 1.418-1.112 2.107-1.5 0.689-0.388 1.204-0.663 1.546-0.825v0l2.137 4.154c-0.225 0.105-0.487 0.242-0.787 0.411-0.3 0.169-0.594 0.377-0.881 0.622v0c-0.675 0.577-1.016 1.139-1.021 1.684-0.005 0.545 0.234 1.1 0.717 1.665v0l0.943 1.104 3.319-2.838 2.974 3.478-3.32 2.837z" fill="#ffffff" data-fill-palette-color="primary"></path><path d="M251.096 223.275v0c-1.333 1.81-2.845 3.097-4.537 3.861-1.696 0.76-3.485 0.991-5.365 0.693-1.881-0.298-3.75-1.131-5.608-2.5v0c-1.81-1.333-3.138-2.851-3.984-4.553-0.852-1.706-1.194-3.478-1.027-5.315 0.167-1.837 0.886-3.618 2.156-5.343v0c1.144-1.554 2.51-2.714 4.096-3.481 1.59-0.772 3.319-1.039 5.186-0.8 1.871 0.233 3.805 1.085 5.801 2.556v0l1.322 0.973-8.843 12.005c1.37 0.935 2.702 1.319 3.994 1.151 1.293-0.168 2.368-0.833 3.226-1.997v0c0.598-0.812 0.938-1.636 1.019-2.474 0.082-0.838-0.114-1.628-0.587-2.372v0l3.611-4.283c1.362 1.539 2.027 3.359 1.995 5.46-0.036 2.106-0.855 4.246-2.455 6.419zM237.313 219.127v0l5.374-7.296c-1.202-0.705-2.35-0.998-3.441-0.88-1.092 0.118-2.037 0.719-2.836 1.804v0c-0.806 1.095-1.104 2.209-0.894 3.344 0.21 1.135 0.809 2.144 1.797 3.028z" fill="#ffffff" data-fill-palette-color="primary"></path><path d="M268.234 190.789v0c-0.802 2.1-1.916 3.744-3.341 4.931-1.432 1.185-3.094 1.885-4.987 2.099-1.892 0.215-3.916-0.09-6.071-0.913v0c-2.1-0.802-3.785-1.91-5.055-3.325-1.276-1.417-2.079-3.033-2.408-4.848-0.329-1.815-0.112-3.723 0.653-5.724v0c0.688-1.803 1.695-3.285 3.018-4.448 1.326-1.169 2.921-1.887 4.784-2.155 1.865-0.274 3.956 0.031 6.273 0.915v0l1.533 0.586-5.318 13.929c1.57 0.536 2.956 0.55 4.157 0.044 1.201-0.507 2.06-1.435 2.575-2.786v0c0.36-0.942 0.467-1.827 0.322-2.656-0.145-0.829-0.545-1.539-1.199-2.129v0l2.338-5.092c1.723 1.119 2.85 2.696 3.38 4.73 0.527 2.04 0.309 4.32-0.654 6.842zM253.844 190.468v0l3.233-8.465c-1.347-0.358-2.531-0.335-3.552 0.071-1.021 0.405-1.771 1.237-2.251 2.494v0c-0.485 1.27-0.475 2.424 0.03 3.461 0.505 1.038 1.352 1.851 2.54 2.439z" fill="#ffffff" data-fill-palette-color="primary"></path><path d="M3.754 143.252c0-6.153 4.988-11.141 11.141-11.14 6.153 0 11.141 4.988 11.141 11.14 0 6.153-4.988 11.141-11.141 11.141-6.153 0-11.141-4.988-11.141-11.141z" fill="#ffffff" data-fill-palette-color="primary"></path><path d="M254.42 143.252c0-6.153 4.988-11.141 11.14-11.14 6.153 0 11.141 4.988 11.141 11.14 0 6.153-4.988 11.141-11.141 11.141-6.153 0-11.141-4.988-11.14-11.141z" fill="#ffffff" data-fill-palette-color="primary"></path></g><g id="text-1"></g></svg></g></svg></g></svg></g></svg></g><defs></defs></svg><rect width="280" height="280" fill="none" stroke="none" visibility="hidden"></rect></g></svg></g></svg>